<svg width="640" height="448" viewBox="0 0 640 448" fill="none" xmlns="http://www.w3.org/2000/svg">
<path d="M192 224C253.856 224 304 173.856 304 112C304 50.1441 253.856 0 192 0C130.144 0 80 50.1441 80 112C80 173.856 130.144 224 192 224Z" fill="url(#paint0_linear)"/>
<path d="M268.8 256H260.5C239.7 266 216.6 272 192 272C167.4 272 144.4 266 123.5 256H115.2C51.6 256 0 307.6 0 371.2V400C0 426.5 21.5 448 48 448H336C362.5 448 384 426.5 384 400V371.2C384 307.6 332.4 256 268.8 256Z" fill="url(#paint1_linear)"/>
<path d="M480 224C533.019 224 576 181.019 576 128C576 74.9807 533.019 32 480 32C426.981 32 384 74.9807 384 128C384 181.019 426.981 224 480 224Z" fill="url(#paint2_linear)"/>
<path d="M528 256H524.2C510.3 260.8 495.6 264 480 264C464.4 264 449.7 260.8 435.8 256H432C411.6 256 392.8 261.9 376.3 271.4C400.7 297.7 416 332.6 416 371.2V409.6C416 411.8 415.5 413.9 415.4 416H592C618.5 416 640 394.5 640 368C640 306.1 589.9 256 528 256Z" fill="url(#paint3_linear)"/>
<defs>
<linearGradient id="paint0_linear" x1="192" y1="0" x2="192" y2="224" gradientUnits="userSpaceOnUse">
<stop offset="0.489583" stop-color="#5E9CFF"/>
<stop offset="1" stop-color="#3482E9"/>
</linearGradient>
<linearGradient id="paint1_linear" x1="192" y1="256" x2="192" y2="448" gradientUnits="userSpaceOnUse">
<stop stop-color="#4794EE"/>
<stop offset="1" stop-color="#0F59CE"/>
</linearGradient>
<linearGradient id="paint2_linear" x1="480" y1="32" x2="480" y2="224" gradientUnits="userSpaceOnUse">
<stop offset="0.489583" stop-color="#5E9CFF"/>
<stop offset="1" stop-color="#3482E9"/>
</linearGradient>
<linearGradient id="paint3_linear" x1="508.15" y1="256" x2="508.15" y2="416" gradientUnits="userSpaceOnUse">
<stop stop-color="#4794EE"/>
<stop offset="1" stop-color="#0F59CE"/>
</linearGradient>
</defs>
</svg>
