<svg width="448" height="512" viewBox="0 0 448 512" fill="none" xmlns="http://www.w3.org/2000/svg">
<g clip-path="url(#clip0)">
<path d="M319.4 320.6L224 416L128.6 320.6C57.1 323.7 0 382.2 0 454.4V464C0 490.5 21.5 512 48 512H400C426.5 512 448 490.5 448 464V454.4C448 382.2 390.9 323.7 319.4 320.6Z" fill="url(#paint0_linear)"/>
<path d="M13.6 79.8L20 81.3V139.7C13 143.9 8.00002 151.2 8.00002 160C8.00002 168.4 12.6 175.4 19.1 179.7L3.50002 242C1.80002 248.9 5.60003 256 11.1 256H52.9C58.4 256 62.2 248.9 60.5 242L44.9 179.7C51.4 175.4 56 168.4 56 160C56 151.2 51 143.9 44 139.7V87.1L110 103C101.4 120.2 96 139.4 96 160C96 230.7 153.3 288 224 288C294.7 288 352 230.7 352 160C352 139.4 346.7 120.2 338 103L434.3 79.8C452.5 75.4 452.5 52.7 434.3 48.3L243.9 2.29998C230.9 -0.800025 217.2 -0.800025 204.2 2.29998L13.6 48.2C-4.49998 52.6 -4.49998 75.4 13.6 79.8Z" fill="url(#paint1_linear)"/>
</g>
<defs>
<linearGradient id="paint0_linear" x1="224" y1="320.6" x2="224" y2="512" gradientUnits="userSpaceOnUse">
<stop stop-color="#4794EE"/>
<stop offset="1" stop-color="#0F59CE"/>
</linearGradient>
<linearGradient id="paint1_linear" x1="223.988" y1="-0.0250244" x2="223.988" y2="288" gradientUnits="userSpaceOnUse">
<stop offset="0.489583" stop-color="#5E9CFF"/>
<stop offset="1" stop-color="#3482E9"/>
</linearGradient>
<clipPath id="clip0">
<rect width="448" height="512" fill="white"/>
</clipPath>
</defs>
</svg>
