<svg width="217" height="208" viewBox="0 0 217 208" fill="none" xmlns="http://www.w3.org/2000/svg">
<g clip-path="url(#clip0)">
<path d="M98.87 32.66C104.361 31.8834 109.928 31.7994 115.44 32.41C116.94 32.6 118.7 32.51 119.88 33.63C120.296 34.0193 120.617 34.4984 120.82 35.0308C121.022 35.5633 121.1 36.1349 121.048 36.7021C120.996 37.2693 120.815 37.8171 120.519 38.3037C120.223 38.7903 119.82 39.2029 119.34 39.51C118.06 40.38 116.48 39.9 115.06 39.77C109.912 39.174 104.708 39.2513 99.58 40C99.0835 40.072 98.5773 40.0385 98.0946 39.9017C97.6119 39.7649 97.1634 39.5279 96.7785 39.2062C96.3935 38.8844 96.0807 38.4851 95.8604 38.0343C95.6401 37.5836 95.5173 37.0914 95.5 36.59C95.4309 35.6231 95.7461 34.668 96.3771 33.9322C97.0081 33.1964 97.9039 32.7392 98.87 32.66V32.66Z" fill="#ADB5BD"/>
<path d="M104.45 41C110.35 40.87 116.34 40.86 122.1 42.33C124.76 43.04 125.38 47.04 123.24 48.65C122.24 49.65 120.66 49.52 119.37 49.26C111.968 47.8018 104.352 47.8018 96.95 49.26C96.3185 49.4459 95.6515 49.4766 95.0056 49.3495C94.3597 49.2224 93.754 48.9413 93.24 48.53C91.11 46.8 91.92 42.82 94.66 42.22C97.8765 41.4992 101.155 41.0906 104.45 41V41Z" fill="#ADB5BD"/>
<path d="M97.93 50.51C107.47 49.18 117.38 49.51 126.61 52.38C128.21 52.96 130.19 53.38 131.02 55.02C131.263 55.4593 131.412 55.9444 131.457 56.4443C131.502 56.9443 131.443 57.4482 131.283 57.924C131.123 58.3999 130.866 58.8373 130.528 59.2084C130.19 59.5796 129.779 59.8764 129.32 60.08C127.26 61.08 125.23 59.5 123.23 59.08C113.576 56.4543 103.399 56.4267 93.73 59C91.5 59.46 89.18 61.32 86.92 60C86.3523 59.667 85.8829 59.1896 85.5593 58.6165C85.2358 58.0434 85.0696 57.3949 85.0778 56.7368C85.0859 56.0787 85.268 55.4344 85.6056 54.8695C85.9432 54.3045 86.4243 53.8389 87 53.52C90.5016 52.059 94.1741 51.0476 97.93 50.51V50.51Z" fill="#ADB5BD"/>
<path d="M87 65.52C87.0901 64.9689 87.3058 64.446 87.6304 63.9917C87.955 63.5373 88.3797 63.1638 88.8718 62.8998C89.3639 62.6359 89.9101 62.4888 90.4681 62.4697C91.0261 62.4507 91.5811 62.5602 92.09 62.79C92.8605 63.1505 93.496 63.7472 93.9042 64.4935C94.3124 65.2398 94.4721 66.0968 94.36 66.94C94.26 70.39 94.75 73.94 93.5 77.28C92.4095 80.1406 90.3594 82.5336 87.7 84.05C83.1772 87.1052 79.3937 91.1318 76.6256 95.8358C73.8575 100.54 72.1747 105.803 71.7 111.24C71.5605 113.998 71.6307 116.763 71.91 119.51C72.4343 123.823 73.8401 127.983 76.04 131.73C76.78 132.89 77.5 134.06 78.21 135.24C83.5366 143.04 91.7398 148.41 101.02 150.17C103.69 150.604 106.386 150.858 109.09 150.93C114.555 150.846 119.923 149.476 124.76 146.93C127.545 145.367 130.188 143.563 132.66 141.54C138.314 136.691 142.258 130.153 143.91 122.89C145.621 115.687 145.125 108.136 142.487 101.218C139.85 94.3001 135.192 88.3358 129.12 84.1C127.422 83.1109 125.825 81.9588 124.35 80.66C122.743 79.0516 121.597 77.0418 121.03 74.84C120.36 72.25 120.68 69.56 120.61 66.92C120.494 66.0911 120.641 65.2468 121.031 64.5059C121.42 63.765 122.032 63.1648 122.78 62.79C123.293 62.5435 123.856 62.4194 124.425 62.4273C124.994 62.4353 125.554 62.5751 126.06 62.8358C126.565 63.0965 127.004 63.4709 127.341 63.9297C127.677 64.3886 127.903 64.9192 128 65.48C128.35 67.94 127.88 70.48 128.25 72.91C128.469 73.7227 128.859 74.4793 129.393 75.1293C129.928 75.7794 130.595 76.3081 131.35 76.68C137.047 80.1666 141.873 84.9063 145.463 90.5386C149.053 96.1709 151.311 102.548 152.066 109.184C152.821 115.82 152.053 122.541 149.82 128.836C147.587 135.13 143.948 140.833 139.18 145.51C132.51 152.169 123.847 156.467 114.51 157.75C97.9 160.32 80.31 152.22 71.35 138.03C65.3933 128.868 63.0803 117.808 64.8661 107.027C66.652 96.2454 72.4072 86.5223 81 79.77C83 78.01 86 76.94 86.78 74.11C87.16 71.26 86.74 68.37 87 65.52Z" fill="#ADB5BD"/>
<path d="M100.13 62.71C100.875 62.5028 101.649 62.425 102.42 62.48C106.62 62.48 110.82 62.48 115.03 62.48C116.71 62.41 118.57 63.6 118.52 65.48C118.52 77.38 118.52 89.29 118.52 101.19C118.453 102.828 118.041 104.433 117.31 105.9C115.56 110.15 113.41 114.22 111.31 118.29C110.685 119.691 109.822 120.973 108.76 122.08C107.29 122.31 106.71 120.66 106.05 119.67C103.1 113.99 99.74 108.39 98.05 102.18C97.91 90.1 98 78 98 66C97.9348 65.2922 98.1093 64.583 98.4956 63.9864C98.8819 63.3897 99.4575 62.9402 100.13 62.71V62.71ZM100.5 101C100.74 104.26 102.61 107.08 103.81 110L104.81 110.34C107.099 110.13 109.401 110.13 111.69 110.34L112.74 110.03C114.246 107.144 115.433 104.103 116.28 100.96C111 101 105.75 101 100.5 101Z" fill="#ADB5BD"/>
<path d="M103.73 0.16C105 0.1 106.22 0 107.47 0C105.83 3 104.14 6 102.67 9.1C102.654 11.0153 102.798 12.9286 103.1 14.82L99.76 15.07C99.39 12.71 100.06 9.88 98.26 8.01C96.49 5.72 94.8 3.38 93 1.1L96.79 0.68C98.21 2.41 99.25 4.42 100.79 6.01C101.75 4 102.73 2.1 103.73 0.16Z" fill="#ADB5BD"/>
<path d="M111 0C114.63 0.26 118.26 0.61 121.9 0.83C121.9 1.83 121.9 2.83 121.83 3.77C119.26 3.72 116.71 3.17 114.15 3.31C113.95 4.17 113.86 5.04 113.74 5.92C116.02 6.2 118.31 6.38 120.6 6.5C120.53 7.5 120.45 8.5 120.38 9.43C118.15 9.28 115.94 9.09 113.72 8.9C113.58 9.84 113.42 10.78 113.29 11.73C115.88 12.14 118.51 12.2 121.13 12.4C121.077 13.4 121.007 14.4 120.92 15.4C117.26 15.03 113.59 14.76 109.92 14.51C110.24 9.72 110.8 4.89 111 0Z" fill="#ADB5BD"/>
<path d="M84.43 2.75C85.5928 2.53906 86.7889 2.60476 87.9216 2.94179C89.0542 3.27881 90.0917 3.8777 90.95 4.69C92.3973 6.11954 93.2211 8.06315 93.2417 10.0973C93.2623 12.1315 92.4781 14.0914 91.06 15.55C88.13 18.4 82.92 18.64 79.99 15.66C78.9821 14.6219 78.2892 13.3192 77.9919 11.9032C77.6945 10.4872 77.8048 9.01586 78.31 7.66C78.8027 6.37217 79.6292 5.23864 80.7047 4.37577C81.7802 3.51291 83.066 2.95178 84.43 2.75V2.75ZM83.9 6.06C80.78 7.2 80.28 11.78 82.9 13.71C85.39 16 90 14 89.84 10.57C90.16 7.52 86.81 4.74 83.9 6.06Z" fill="#ADB5BD"/>
<path d="M128.15 3.53999C129.963 2.73917 132.002 2.61247 133.9 3.18273C135.797 3.753 137.429 4.98269 138.5 6.64999C137.627 7.28333 136.74 7.89999 135.84 8.49999C134.78 7.06999 133.25 5.67999 131.33 5.92999C127.9 6.17999 126.07 10.93 128.44 13.45C130 15.32 132.69 14.97 134.67 14.06C135.16 14.9 135.67 15.73 136.18 16.56C132.62 19 127 18 124.9 14.09C123.933 12.2598 123.732 10.1206 124.342 8.14239C124.951 6.1642 126.321 4.50883 128.15 3.53999V3.53999Z" fill="#ADB5BD"/>
<path d="M142 5.77L153.11 10.5C152.717 11.4467 152.32 12.39 151.92 13.33C150.56 12.77 149.2 12.18 147.83 11.64C146.42 15.19 144.83 18.64 143.38 22.17C142.38 21.76 141.31 21.31 140.3 20.85C141.89 17.36 143.3 13.8 144.86 10.3C143.5 9.75 142.15 9.18 140.8 8.62L142 5.77Z" fill="#ADB5BD"/>
<path d="M61.4 11.59C64.76 10.45 67.84 7.59 71.59 8.35C74.85 9.35 75.95 13.94 73.64 16.35C75.37 17.43 77.13 18.46 78.88 19.53C77.74 20.12 76.58 20.66 75.4 21.18C73.81 20.18 72.2 19.24 70.63 18.24L68.57 19.24C69.1 20.67 69.75 22.04 70.39 23.42C69.39 23.91 68.39 24.42 67.46 24.86C65.41 20.47 63.26 16.09 61.4 11.59ZM65.66 13C66.16 14.21 66.66 15.42 67.2 16.63C68.95 15.91 70.93 15.29 71.92 13.52C71.4 12.61 71 11.25 69.7 11.35C68.2967 11.7495 66.9418 12.3029 65.66 13V13Z" fill="#ADB5BD"/>
<path d="M155.71 14.78C160.45 13.18 166.15 17.05 165.97 22.15C165.98 23.1952 165.771 24.2309 165.355 25.1901C164.94 26.1493 164.328 27.0106 163.559 27.7184C162.79 28.4263 161.881 28.9648 160.891 29.2993C159.9 29.6337 158.851 29.7566 157.81 29.66C155.801 29.4903 153.933 28.563 152.583 27.0662C151.233 25.5695 150.502 23.6153 150.54 21.6C150.638 20.0815 151.181 18.6255 152.1 17.4129C153.019 16.2003 154.275 15.2847 155.71 14.78V14.78ZM156.6 18C153.86 19.33 152.78 23.54 155.45 25.49C158.04 28.02 162.57 25.56 162.61 22.18C162.653 21.4465 162.508 20.7141 162.187 20.053C161.866 19.392 161.38 18.8245 160.777 18.4049C160.174 17.9853 159.473 17.7277 158.741 17.6568C158.01 17.5859 157.273 17.7041 156.6 18V18Z" fill="#ADB5BD"/>
<path d="M48.21 20C50.69 18.54 52.85 16.37 55.66 15.59C59.24 14.65 62.55 18.72 61.36 22.07C60.67 24.26 58.51 25.44 56.74 26.68C57.54 27.86 58.34 29.05 59.18 30.21C58.26 30.84 57.35 31.46 56.45 32.1C53.59 28.15 51 24 48.21 20ZM52.74 20.61C53.47 21.8 54.24 23 55 24.15C56.22 23.32 57.83 22.69 58.34 21.15C58.51 20.15 57.61 19.46 57.13 18.7C55.39 18.55 54.07 19.72 52.73 20.62L52.74 20.61Z" fill="#ADB5BD"/>
<path d="M98.87 32.66C104.361 31.8834 109.928 31.7994 115.44 32.41C116.94 32.6 118.7 32.51 119.88 33.63C120.296 34.0193 120.617 34.4984 120.82 35.0308C121.022 35.5633 121.1 36.1349 121.048 36.7021C120.996 37.2693 120.815 37.8171 120.519 38.3037C120.223 38.7903 119.82 39.2029 119.34 39.51C118.06 40.38 116.48 39.9 115.06 39.77C109.912 39.174 104.708 39.2513 99.58 40C99.0835 40.072 98.5773 40.0385 98.0946 39.9017C97.6119 39.7649 97.1634 39.5279 96.7785 39.2062C96.3935 38.8844 96.0807 38.4851 95.8604 38.0343C95.6401 37.5836 95.5173 37.0914 95.5 36.59C95.4309 35.6231 95.7461 34.668 96.3771 33.9322C97.0081 33.1964 97.9039 32.7392 98.87 32.66V32.66Z" fill="#ADB5BD"/>
<path d="M104.45 41C110.35 40.87 116.34 40.86 122.1 42.33C124.76 43.04 125.38 47.04 123.24 48.65C122.24 49.65 120.66 49.52 119.37 49.26C111.968 47.8018 104.352 47.8018 96.95 49.26C96.3185 49.4459 95.6515 49.4766 95.0056 49.3495C94.3597 49.2224 93.754 48.9413 93.24 48.53C91.11 46.8 91.92 42.82 94.66 42.22C97.8765 41.4992 101.155 41.0906 104.45 41V41Z" fill="#ADB5BD"/>
<path d="M97.93 50.51C107.47 49.18 117.38 49.51 126.61 52.38C128.21 52.96 130.19 53.38 131.02 55.02C131.263 55.4593 131.412 55.9444 131.457 56.4443C131.502 56.9443 131.443 57.4482 131.283 57.924C131.123 58.3999 130.866 58.8373 130.528 59.2084C130.19 59.5796 129.779 59.8764 129.32 60.08C127.26 61.08 125.23 59.5 123.23 59.08C113.576 56.4543 103.399 56.4267 93.73 59C91.5 59.46 89.18 61.32 86.92 60C86.3523 59.667 85.8829 59.1896 85.5593 58.6165C85.2358 58.0434 85.0696 57.3949 85.0778 56.7368C85.0859 56.0787 85.268 55.4344 85.6056 54.8695C85.9432 54.3045 86.4243 53.8389 87 53.52C90.5016 52.059 94.1741 51.0476 97.93 50.51V50.51Z" fill="#ADB5BD"/>
<path d="M93 119.46C93.1828 118.812 93.5108 118.214 93.9592 117.712C94.4076 117.21 94.9645 116.817 95.5876 116.562C96.2108 116.307 96.8838 116.198 97.5555 116.242C98.2272 116.287 98.88 116.484 99.4643 116.818C100.049 117.152 100.549 117.616 100.927 118.172C101.306 118.729 101.552 119.365 101.648 120.031C101.744 120.697 101.687 121.377 101.481 122.018C101.275 122.659 100.926 123.244 100.46 123.73C99.4747 124.611 98.211 125.117 96.89 125.16C96.4053 126.118 96.02 127.123 95.74 128.16C97.4737 128.821 99.0529 129.831 100.379 131.128C101.706 132.425 102.751 133.981 103.45 135.7C104.59 135.4 105.72 135.04 106.84 134.65C107.491 131.72 108.726 128.951 110.471 126.509C112.217 124.068 114.438 122.003 117 120.44C120.083 118.585 123.562 117.487 127.152 117.237C130.741 116.986 134.339 117.591 137.65 119C139.903 120.026 142.016 121.333 143.94 122.89C142.288 130.153 138.344 136.691 132.69 141.54C132.69 135.99 132.69 130.45 132.69 124.91C130.02 124.96 127.27 124.55 124.69 125.41C122.58 126.03 120.47 126.65 118.35 127.18C118.63 129.3 119.24 131.35 119.73 133.43C121.41 133.13 123.07 132.73 124.73 132.31C124.73 137.18 124.68 142.06 124.73 146.93C119.893 149.476 114.525 150.846 109.06 150.93C106.65 146.468 105.715 141.357 106.39 136.33C105.55 136.58 104.72 136.85 103.89 137.11C105.28 141.64 103.89 146.54 100.99 150.17C91.7098 148.41 83.5066 143.04 78.18 135.24L79.76 132.53L78 130.71L76.11 131.71C73.9101 127.963 72.5044 123.803 71.98 119.49C73.1466 119.075 74.4039 118.986 75.6175 119.231C76.8311 119.476 77.9554 120.046 78.87 120.88C79.6834 121.709 80.262 122.74 80.5466 123.866C80.8312 124.992 80.8117 126.174 80.49 127.29C80.23 128.23 79.42 129.02 79.41 130.01C79.81 130.54 80.28 131.01 80.73 131.51C82.4725 129.74 84.6378 128.443 87.0211 127.743C89.4045 127.043 91.927 126.963 94.35 127.51L95.47 124.74C93.57 123.82 92.21 121.55 93 119.46Z" fill="#ADB5BD"/>
<path d="M187.27 100C189.17 100.34 191.1 100.54 193 100.89C192.28 105.99 191.5 111.08 190.8 116.18C192.7 116.43 194.59 116.74 196.49 116.95C197.06 112.5 197.85 108.07 198.36 103.61C200.28 103.75 202.18 104.05 204.08 104.36C203.55 108.85 202.74 113.29 202.21 117.78C204.15 118.14 206.11 118.38 208.06 118.71C208.793 113.53 209.543 108.353 210.31 103.18C212.21 103.44 214.1 103.75 216.01 103.98C214.96 111.22 213.89 118.46 212.89 125.7C203.3 124.62 193.78 122.99 184.22 121.7C185.15 114.45 186.34 107.25 187.27 100Z" fill="#ADB5BD"/>
<path d="M0 100.78C10.26 103.35 20.46 106.1 30.7 108.72C31.0067 110.72 31.2967 112.697 31.57 114.65C22.57 120.11 13.64 125.79 4.57 131.12C4.35 128.88 3.72 126.68 3.78 124.43C5.66 123.17 7.66 122.11 9.6 120.95C8.97 116.95 8.6 112.95 7.75 109.02C5.6 108.14 3.22 107.94 1.01 107.22C0.66 105.07 0.38 102.91 0 100.78ZM13.76 110.4C14.18 112.86 14.53 115.33 14.89 117.81C17.68 116.08 20.58 114.52 23.3 112.69C20.12 112 17 111.11 13.76 110.4Z" fill="#ADB5BD"/>
<path d="M178.62 134.41C180.25 131.73 182.94 129.21 186.26 129.19C188.382 129.041 190.498 129.565 192.306 130.687C194.113 131.809 195.522 133.472 196.33 135.44C196.738 136.954 196.884 138.527 196.76 140.09C200.89 139.65 205.01 139.09 209.15 138.81C208 140.99 206.79 143.13 205.67 145.32C202.26 145.75 198.83 146.01 195.41 146.32C194.7 146.22 194.32 146.88 194.02 147.39C193.38 148.5 192.82 149.66 192.26 150.81C194.99 152.19 197.64 153.72 200.37 155.12C199.37 157.01 198.32 158.93 197.31 160.85C188.77 156.28 180.22 151.72 171.72 147.08C174.09 142.89 176.24 138.59 178.62 134.41ZM186.26 135.73C185.535 135.964 184.866 136.346 184.296 136.852C183.726 137.358 183.268 137.977 182.95 138.67C181.95 140.5 180.95 142.36 180.01 144.2C182.42 145.45 184.73 146.91 187.25 147.94C188.35 145.46 190.05 143.25 190.87 140.65C191.69 138.05 188.86 135.37 186.26 135.73Z" fill="#ADB5BD"/>
<path d="M23.37 136.29C25.21 131.47 32.03 129.58 36.14 132.7C40.83 136.16 42.58 142.55 41.76 148.14C39.88 148 38 147.81 36.14 147.52L35.84 147.12C36.18 143.86 35.84 139.91 33.09 137.73C32.7327 137.504 32.3213 137.379 31.899 137.367C31.4766 137.354 31.0586 137.455 30.6887 137.66C30.3188 137.864 30.0106 138.164 29.7962 138.528C29.5819 138.892 29.4692 139.307 29.47 139.73C29.73 143.73 31.75 147.65 31.12 151.73C30.41 156.93 23.73 159.73 19.26 157.39C16.08 155.89 14.26 152.67 12.96 149.54C11.62 146.2 11.78 142.54 12.19 139C14.19 139.38 16.12 139.8 18.1 140.14C17.4675 142.854 17.6732 145.696 18.69 148.29C19.37 149.83 20.36 151.49 22.05 152.04C22.413 152.076 22.7795 152.031 23.123 151.908C23.4664 151.785 23.7781 151.587 24.0356 151.328C24.2931 151.07 24.4899 150.757 24.6117 150.413C24.7336 150.07 24.7774 149.703 24.74 149.34C24.5 145 22.08 140.71 23.37 136.29Z" fill="#ADB5BD"/>
<path d="M152.77 165.2C158.16 160.26 163.64 155.42 169.05 150.5C170.435 151.9 171.734 153.383 172.94 154.94C169 158.22 165.31 161.78 161.47 165.17C162.78 166.54 164 168.01 165.32 169.38C168.61 166.38 171.89 163.38 175.23 160.47C176.91 161.35 177.84 163.33 179.29 164.58C175.96 167.67 172.5 170.63 169.18 173.73C170.54 175.15 171.83 176.63 173.18 178.07C177.04 174.55 180.88 171.01 184.85 167.62L188.68 171.98C183.13 176.81 177.68 181.8 172.25 186.73C165.7 179.58 159.32 172.31 152.77 165.2Z" fill="#ADB5BD"/>
<path d="M40.64 157.4C42.711 156.214 45.0371 155.544 47.4216 155.447C49.8061 155.349 52.1791 155.827 54.34 156.84C59.48 159.34 63.48 164.53 63.67 170.37C61.67 170.7 59.54 170.84 57.5 171.22C57.15 168.51 56.27 165.72 54.16 163.86C53.2222 162.993 52.0885 162.365 50.8557 162.031C49.6229 161.697 48.3275 161.665 47.08 161.94C45.0872 162.428 43.2889 163.508 41.9216 165.038C40.5543 166.567 39.6822 168.475 39.42 170.51C39.2963 171.964 39.5628 173.425 40.1921 174.742C40.8215 176.058 41.7908 177.183 43 178C45 179.55 47.56 179.89 50 179.88C50.1467 181.827 50.2567 183.777 50.33 185.73C48.2703 185.886 46.1989 185.721 44.19 185.24C37.25 183.24 31.9 176 33.05 168.65C33.3889 166.325 34.2472 164.107 35.5612 162.159C36.8752 160.211 38.6111 158.585 40.64 157.4V157.4Z" fill="#ADB5BD"/>
<path d="M69.7 168.92C76.5 171.51 83.23 174.33 90.03 176.92C89.41 178.75 88.67 180.53 87.96 182.34C83.11 180.55 78.41 178.34 73.47 176.77C72.87 178.51 72.14 180.21 71.54 181.96C75.7 183.69 79.92 185.29 84.1 186.96C83.3867 188.707 82.72 190.47 82.1 192.25C77.76 190.89 73.65 188.87 69.33 187.42C68.59 189.22 67.8767 191.027 67.19 192.84C72.0167 194.78 76.85 196.7 81.69 198.6C81.03 200.44 80.31 202.25 79.52 204.04C72.75 201.2 65.87 198.63 59.09 195.83C62.55 186.83 66.21 177.9 69.7 168.92Z" fill="#ADB5BD"/>
<path d="M135.56 173.37C137.591 172.534 139.775 172.133 141.971 172.192C144.167 172.25 146.326 172.767 148.31 173.71C151.345 175.323 153.713 177.957 154.994 181.146C156.275 184.336 156.387 187.876 155.31 191.14C154.574 193.174 153.414 195.027 151.907 196.579C150.4 198.131 148.581 199.344 146.57 200.14C142.89 201.62 139.15 202.98 135.5 204.54C131.84 195.59 128.5 186.54 124.84 177.54C128.39 176.13 132 174.75 135.56 173.37ZM133 180.65C135 185.79 137 190.95 139.06 196.1C139.22 196.89 140.13 196.33 140.61 196.22C143.22 195.22 146.15 194.34 147.87 191.94C151.54 187.28 148.33 179.52 142.64 178.34C139.26 177.53 136.15 179.59 133 180.65Z" fill="#ADB5BD"/>
<path d="M94.35 178.16C96.35 178.16 98.35 178.16 100.35 178.16C104.623 184.027 108.923 189.88 113.25 195.72C113.95 189.95 113.36 184.11 113.81 178.33C115.91 178.43 118.01 178.51 120.11 178.48C119.81 182.58 119.97 186.69 119.89 190.8C119.89 196.34 119.49 201.87 119.6 207.42C117.75 207.42 115.9 207.42 114.06 207.32C109.86 201.55 105.6 195.84 101.4 190.07C101.06 189.63 100.73 189.2 100.4 188.77C100.2 194.77 100.4 200.84 99.98 206.87C97.98 206.87 95.98 206.87 93.98 206.87C94.39 201.16 94.27 195.42 94.15 189.7C94 185.82 94.51 182 94.35 178.16Z" fill="#ADB5BD"/>
<path d="M100.13 62.71C100.875 62.5028 101.649 62.425 102.42 62.48C106.62 62.48 110.82 62.48 115.03 62.48C116.71 62.41 118.57 63.6 118.52 65.48C118.52 77.38 118.52 89.29 118.52 101.19C118.453 102.828 118.041 104.433 117.31 105.9C115.56 110.15 113.41 114.22 111.31 118.29C110.685 119.691 109.822 120.973 108.76 122.08C107.29 122.31 106.71 120.66 106.05 119.67C103.1 113.99 99.74 108.39 98.05 102.18C97.91 90.1 98 78 98 66C97.9348 65.2922 98.1093 64.583 98.4956 63.9864C98.8819 63.3897 99.4575 62.9402 100.13 62.71V62.71ZM100.5 101C100.74 104.26 102.61 107.08 103.81 110L104.81 110.34C107.099 110.13 109.401 110.13 111.69 110.34L112.74 110.03C114.246 107.144 115.433 104.103 116.28 100.96C111 101 105.75 101 100.5 101Z" fill="#ADB5BD"/>
<path d="M100 206.87C100.42 200.87 100.22 194.81 100.42 188.77C100.77 189.19 101.1 189.63 101.42 190.07L100.58 189.86C100.81 195.61 100.28 201.36 100.34 207.12C98.1267 207.2 95.91 207.2 93.69 207.12C93.93 201.3 93.69 195.46 94.13 189.66C94.25 195.38 94.37 201.12 93.96 206.83C96 206.84 98 206.84 100 206.87Z" fill="#ADB5BD"/>
<path d="M98.87 32.66C104.361 31.8834 109.928 31.7994 115.44 32.41C116.94 32.6 118.7 32.51 119.88 33.63C120.296 34.0193 120.617 34.4984 120.82 35.0308C121.022 35.5633 121.1 36.1349 121.048 36.7021C120.996 37.2693 120.815 37.8171 120.519 38.3037C120.223 38.7903 119.82 39.2029 119.34 39.51C118.06 40.38 116.48 39.9 115.06 39.77C109.912 39.174 104.708 39.2513 99.58 40C99.0835 40.072 98.5773 40.0385 98.0946 39.9017C97.6119 39.7649 97.1634 39.5279 96.7785 39.2062C96.3935 38.8844 96.0807 38.4851 95.8604 38.0343C95.6401 37.5836 95.5173 37.0914 95.5 36.59C95.4309 35.6231 95.7461 34.668 96.3771 33.9322C97.0081 33.1964 97.9039 32.7392 98.87 32.66V32.66Z" fill="#ADB5BD"/>
<path d="M104.45 41C110.35 40.87 116.34 40.86 122.1 42.33C124.76 43.04 125.38 47.04 123.24 48.65C122.24 49.65 120.66 49.52 119.37 49.26C111.968 47.8018 104.352 47.8018 96.95 49.26C96.3185 49.4459 95.6515 49.4766 95.0056 49.3495C94.3597 49.2224 93.754 48.9413 93.24 48.53C91.11 46.8 91.92 42.82 94.66 42.22C97.8765 41.4992 101.155 41.0906 104.45 41V41Z" fill="#ADB5BD"/>
<path d="M97.93 50.51C107.47 49.18 117.38 49.51 126.61 52.38C128.21 52.96 130.19 53.38 131.02 55.02C131.263 55.4593 131.412 55.9444 131.457 56.4443C131.502 56.9443 131.443 57.4482 131.283 57.924C131.123 58.3999 130.866 58.8373 130.528 59.2084C130.19 59.5796 129.779 59.8764 129.32 60.08C127.26 61.08 125.23 59.5 123.23 59.08C113.576 56.4543 103.399 56.4267 93.73 59C91.5 59.46 89.18 61.32 86.92 60C86.3523 59.667 85.8829 59.1896 85.5593 58.6165C85.2358 58.0434 85.0696 57.3949 85.0778 56.7368C85.0859 56.0787 85.268 55.4344 85.6056 54.8695C85.9432 54.3045 86.4243 53.8389 87 53.52C90.5016 52.059 94.1741 51.0476 97.93 50.51V50.51Z" fill="#ADB5BD"/>
<path d="M93 119.46C93.1828 118.812 93.5108 118.214 93.9592 117.712C94.4076 117.21 94.9645 116.817 95.5876 116.562C96.2108 116.307 96.8838 116.198 97.5555 116.242C98.2272 116.287 98.88 116.484 99.4643 116.818C100.049 117.152 100.549 117.616 100.927 118.172C101.306 118.729 101.552 119.365 101.648 120.031C101.744 120.697 101.687 121.377 101.481 122.018C101.275 122.659 100.926 123.244 100.46 123.73C99.4747 124.611 98.211 125.117 96.89 125.16C96.4053 126.118 96.02 127.123 95.74 128.16C97.4737 128.821 99.0529 129.831 100.379 131.128C101.706 132.425 102.751 133.981 103.45 135.7C104.59 135.4 105.72 135.04 106.84 134.65C107.491 131.72 108.726 128.951 110.471 126.509C112.217 124.068 114.438 122.003 117 120.44C120.083 118.585 123.562 117.487 127.152 117.237C130.741 116.986 134.339 117.591 137.65 119C139.903 120.026 142.016 121.333 143.94 122.89C142.288 130.153 138.344 136.691 132.69 141.54C132.69 135.99 132.69 130.45 132.69 124.91C130.02 124.96 127.27 124.55 124.69 125.41C122.58 126.03 120.47 126.65 118.35 127.18C118.63 129.3 119.24 131.35 119.73 133.43C121.41 133.13 123.07 132.73 124.73 132.31C124.73 137.18 124.68 142.06 124.73 146.93C119.893 149.476 114.525 150.846 109.06 150.93C106.65 146.468 105.715 141.357 106.39 136.33C105.55 136.58 104.72 136.85 103.89 137.11C105.28 141.64 103.89 146.54 100.99 150.17C91.7098 148.41 83.5066 143.04 78.18 135.24L79.76 132.53L78 130.71L76.11 131.71C73.9101 127.963 72.5044 123.803 71.98 119.49C73.1466 119.075 74.4039 118.986 75.6175 119.231C76.8311 119.476 77.9554 120.046 78.87 120.88C79.6834 121.709 80.262 122.74 80.5466 123.866C80.8312 124.992 80.8117 126.174 80.49 127.29C80.23 128.23 79.42 129.02 79.41 130.01C79.81 130.54 80.28 131.01 80.73 131.51C82.4725 129.74 84.6378 128.443 87.0211 127.743C89.4045 127.043 91.927 126.963 94.35 127.51L95.47 124.74C93.57 123.82 92.21 121.55 93 119.46Z" fill="#ADB5BD"/>
<path d="M100.13 62.71C100.875 62.5028 101.649 62.425 102.42 62.48C106.62 62.48 110.82 62.48 115.03 62.48C116.71 62.41 118.57 63.6 118.52 65.48C118.52 77.38 118.52 89.29 118.52 101.19C118.453 102.828 118.041 104.433 117.31 105.9C115.56 110.15 113.41 114.22 111.31 118.29C110.685 119.691 109.822 120.973 108.76 122.08C107.29 122.31 106.71 120.66 106.05 119.67C103.1 113.99 99.74 108.39 98.05 102.18C97.91 90.1 98 78 98 66C97.9348 65.2922 98.1093 64.583 98.4956 63.9864C98.8819 63.3897 99.4575 62.9402 100.13 62.71V62.71ZM100.5 101C100.74 104.26 102.61 107.08 103.81 110L104.81 110.34C107.099 110.13 109.401 110.13 111.69 110.34L112.74 110.03C114.246 107.144 115.433 104.103 116.28 100.96C111 101 105.75 101 100.5 101Z" fill="#ADB5BD"/>
<path d="M98.87 32.66C104.361 31.8834 109.928 31.7994 115.44 32.41C116.94 32.6 118.7 32.51 119.88 33.63C120.296 34.0193 120.617 34.4984 120.82 35.0308C121.022 35.5633 121.1 36.1349 121.048 36.7021C120.996 37.2693 120.815 37.8171 120.519 38.3037C120.223 38.7903 119.82 39.2029 119.34 39.51C118.06 40.38 116.48 39.9 115.06 39.77C109.912 39.174 104.708 39.2513 99.58 40C99.0835 40.072 98.5773 40.0385 98.0946 39.9017C97.6119 39.7649 97.1634 39.5279 96.7785 39.2062C96.3935 38.8844 96.0807 38.4851 95.8604 38.0343C95.6401 37.5836 95.5173 37.0914 95.5 36.59C95.4309 35.6231 95.7461 34.668 96.3771 33.9322C97.0081 33.1964 97.9039 32.7392 98.87 32.66V32.66Z" fill="#ADB5BD"/>
<path d="M104.45 41C110.35 40.87 116.34 40.86 122.1 42.33C124.76 43.04 125.38 47.04 123.24 48.65C122.24 49.65 120.66 49.52 119.37 49.26C111.968 47.8018 104.352 47.8018 96.95 49.26C96.3185 49.4459 95.6515 49.4766 95.0056 49.3495C94.3597 49.2224 93.754 48.9413 93.24 48.53C91.11 46.8 91.92 42.82 94.66 42.22C97.8765 41.4992 101.155 41.0906 104.45 41V41Z" fill="#ADB5BD"/>
<path d="M97.93 50.51C107.47 49.18 117.38 49.51 126.61 52.38C128.21 52.96 130.19 53.38 131.02 55.02C131.263 55.4593 131.412 55.9444 131.457 56.4443C131.502 56.9443 131.443 57.4482 131.283 57.924C131.123 58.3999 130.866 58.8373 130.528 59.2084C130.19 59.5796 129.779 59.8764 129.32 60.08C127.26 61.08 125.23 59.5 123.23 59.08C113.576 56.4543 103.399 56.4267 93.73 59C91.5 59.46 89.18 61.32 86.92 60C86.3523 59.667 85.8829 59.1896 85.5593 58.6165C85.2358 58.0434 85.0696 57.3949 85.0778 56.7368C85.0859 56.0787 85.268 55.4344 85.6056 54.8695C85.9432 54.3045 86.4243 53.8389 87 53.52C90.5016 52.059 94.1741 51.0476 97.93 50.51V50.51Z" fill="#ADB5BD"/>
<path d="M93 119.46C93.1828 118.812 93.5108 118.214 93.9592 117.712C94.4076 117.21 94.9645 116.817 95.5876 116.562C96.2108 116.307 96.8838 116.198 97.5555 116.242C98.2272 116.287 98.88 116.484 99.4643 116.818C100.049 117.152 100.549 117.616 100.927 118.172C101.306 118.729 101.552 119.365 101.648 120.031C101.744 120.697 101.687 121.377 101.481 122.018C101.275 122.659 100.926 123.244 100.46 123.73C99.4747 124.611 98.211 125.117 96.89 125.16C96.4053 126.118 96.02 127.123 95.74 128.16C97.4737 128.821 99.0529 129.831 100.379 131.128C101.706 132.425 102.751 133.981 103.45 135.7C104.59 135.4 105.72 135.04 106.84 134.65C107.491 131.72 108.726 128.951 110.471 126.509C112.217 124.068 114.438 122.003 117 120.44C120.083 118.585 123.562 117.487 127.152 117.237C130.741 116.986 134.339 117.591 137.65 119C139.903 120.026 142.016 121.333 143.94 122.89C142.288 130.153 138.344 136.691 132.69 141.54C132.69 135.99 132.69 130.45 132.69 124.91C130.02 124.96 127.27 124.55 124.69 125.41C122.58 126.03 120.47 126.65 118.35 127.18C118.63 129.3 119.24 131.35 119.73 133.43C121.41 133.13 123.07 132.73 124.73 132.31C124.73 137.18 124.68 142.06 124.73 146.93C119.893 149.476 114.525 150.846 109.06 150.93C106.65 146.468 105.715 141.357 106.39 136.33C105.55 136.58 104.72 136.85 103.89 137.11C105.28 141.64 103.89 146.54 100.99 150.17C91.7098 148.41 83.5066 143.04 78.18 135.24L79.76 132.53L78 130.71L76.11 131.71C73.9101 127.963 72.5044 123.803 71.98 119.49C73.1466 119.075 74.4039 118.986 75.6175 119.231C76.8311 119.476 77.9554 120.046 78.87 120.88C79.6834 121.709 80.262 122.74 80.5466 123.866C80.8312 124.992 80.8117 126.174 80.49 127.29C80.23 128.23 79.42 129.02 79.41 130.01C79.81 130.54 80.28 131.01 80.73 131.51C82.4725 129.74 84.6378 128.443 87.0211 127.743C89.4045 127.043 91.927 126.963 94.35 127.51L95.47 124.74C93.57 123.82 92.21 121.55 93 119.46Z" fill="#ADB5BD"/>
<path d="M100.13 62.71C100.875 62.5028 101.649 62.425 102.42 62.48C106.62 62.48 110.82 62.48 115.03 62.48C116.71 62.41 118.57 63.6 118.52 65.48C118.52 77.38 118.52 89.29 118.52 101.19C118.453 102.828 118.041 104.433 117.31 105.9C115.56 110.15 113.41 114.22 111.31 118.29C110.685 119.691 109.822 120.973 108.76 122.08C107.29 122.31 106.71 120.66 106.05 119.67C103.1 113.99 99.74 108.39 98.05 102.18C97.91 90.1 98 78 98 66C97.9348 65.2922 98.1093 64.583 98.4956 63.9864C98.8819 63.3897 99.4575 62.9402 100.13 62.71V62.71ZM100.5 101C100.74 104.26 102.61 107.08 103.81 110L104.81 110.34C107.099 110.13 109.401 110.13 111.69 110.34L112.74 110.03C114.246 107.144 115.433 104.103 116.28 100.96C111 101 105.75 101 100.5 101Z" fill="#ADB5BD"/>
<path d="M93 119.46C93.1828 118.812 93.5108 118.214 93.9592 117.712C94.4076 117.21 94.9645 116.817 95.5876 116.562C96.2108 116.307 96.8838 116.198 97.5555 116.242C98.2272 116.287 98.88 116.484 99.4643 116.818C100.049 117.152 100.549 117.616 100.927 118.172C101.306 118.729 101.552 119.365 101.648 120.031C101.744 120.697 101.687 121.377 101.481 122.018C101.275 122.659 100.926 123.244 100.46 123.73C99.4747 124.611 98.211 125.117 96.89 125.16C96.4053 126.118 96.02 127.123 95.74 128.16C97.4737 128.821 99.0529 129.831 100.379 131.128C101.706 132.425 102.751 133.981 103.45 135.7C104.59 135.4 105.72 135.04 106.84 134.65C107.491 131.72 108.726 128.951 110.471 126.509C112.217 124.068 114.438 122.003 117 120.44C120.083 118.585 123.562 117.487 127.152 117.237C130.741 116.986 134.339 117.591 137.65 119C139.903 120.026 142.016 121.333 143.94 122.89C142.288 130.153 138.344 136.691 132.69 141.54C132.69 135.99 132.69 130.45 132.69 124.91C130.02 124.96 127.27 124.55 124.69 125.41C122.58 126.03 120.47 126.65 118.35 127.18C118.63 129.3 119.24 131.35 119.73 133.43C121.41 133.13 123.07 132.73 124.73 132.31C124.73 137.18 124.68 142.06 124.73 146.93C119.893 149.476 114.525 150.846 109.06 150.93C106.65 146.468 105.715 141.357 106.39 136.33C105.55 136.58 104.72 136.85 103.89 137.11C105.28 141.64 103.89 146.54 100.99 150.17C91.7098 148.41 83.5066 143.04 78.18 135.24L79.76 132.53L78 130.71L76.11 131.71C73.9101 127.963 72.5044 123.803 71.98 119.49C73.1466 119.075 74.4039 118.986 75.6175 119.231C76.8311 119.476 77.9554 120.046 78.87 120.88C79.6834 121.709 80.262 122.74 80.5466 123.866C80.8312 124.992 80.8117 126.174 80.49 127.29C80.23 128.23 79.42 129.02 79.41 130.01C79.81 130.54 80.28 131.01 80.73 131.51C82.4725 129.74 84.6378 128.443 87.0211 127.743C89.4045 127.043 91.927 126.963 94.35 127.51L95.47 124.74C93.57 123.82 92.21 121.55 93 119.46Z" fill="#ADB5BD"/>
</g>
<defs>
<clipPath id="clip0">
<rect width="216.01" height="207.41" fill="white"/>
</clipPath>
</defs>
</svg>
