<svg width="258" height="78" viewBox="0 0 258 78" fill="none" xmlns="http://www.w3.org/2000/svg">
<path d="M58.8516 0V50.5723C58.8516 58.9746 56.2148 65.6191 50.9414 70.5059C45.7031 75.3926 38.5312 77.8359 29.4258 77.8359C20.4609 77.8359 13.3418 75.4629 8.06836 70.7168C2.79492 65.9707 0.105469 59.4492 0 51.1523V0H15.8203V50.6777C15.8203 55.7051 17.0156 59.3789 19.4062 61.6992C21.832 63.9844 25.1719 65.127 29.4258 65.127C38.3203 65.127 42.8379 60.4512 42.9785 51.0996V0H58.8516Z" fill="#ADB5BD"/>
<path d="M129.621 12.8145H106.102V76.7812H90.2812V12.8145H67.0781V0H129.621V12.8145Z" fill="#ADB5BD"/>
<path d="M154.512 49.7285V76.7812H138.691V0H168.645C174.41 0 179.473 1.05469 183.832 3.16406C188.227 5.27344 191.602 8.2793 193.957 12.1816C196.312 16.0488 197.49 20.4609 197.49 25.418C197.49 32.9414 194.906 38.8828 189.738 43.2422C184.605 47.5664 177.486 49.7285 168.381 49.7285H154.512ZM154.512 36.9141H168.645C172.828 36.9141 176.01 35.9297 178.189 33.9609C180.404 31.9922 181.512 29.1797 181.512 25.5234C181.512 21.7617 180.404 18.7207 178.189 16.4004C175.975 14.0801 172.916 12.8848 169.014 12.8145H154.512V36.9141Z" fill="#ADB5BD"/>
<path d="M224.227 64.0723H257.818V76.7812H208.406V0H224.227V64.0723Z" fill="#ADB5BD"/>
</svg>
